<mxfile host="Electron" modified="2024-06-12T18:32:04.779Z" agent="Mozilla/5.0 (X11; Linux x86_64) AppleWebKit/537.36 (KHTML, like Gecko) draw.io/24.5.1 Chrome/124.0.6367.207 Electron/30.0.6 Safari/537.36" etag="CEE6Sx96gmaVm4ALgTmT" version="24.5.1" type="device" pages="2">
  <diagram name="Expresiones regulares" id="2V7hDnaWoVAFgfYuuwn-">
    <mxGraphModel dx="2057" dy="1156" grid="0" gridSize="10" guides="1" tooltips="1" connect="1" arrows="1" fold="1" page="0" pageScale="1" pageWidth="1169" pageHeight="827" background="none" math="0" shadow="0">
      <root>
        <mxCell id="0" />
        <mxCell id="1" parent="0" />
        <mxCell id="ImYyobWtf8lJqjhgtRaY-94" style="rounded=0;orthogonalLoop=1;jettySize=auto;html=1;exitX=0;exitY=0.5;exitDx=0;exitDy=0;entryX=1;entryY=0.5;entryDx=0;entryDy=0;" parent="1" source="ImYyobWtf8lJqjhgtRaY-79" target="ImYyobWtf8lJqjhgtRaY-92" edge="1">
          <mxGeometry relative="1" as="geometry" />
        </mxCell>
        <mxCell id="ImYyobWtf8lJqjhgtRaY-96" value="" style="rounded=0;orthogonalLoop=1;jettySize=auto;html=1;" parent="1" source="ImYyobWtf8lJqjhgtRaY-79" target="ImYyobWtf8lJqjhgtRaY-81" edge="1">
          <mxGeometry relative="1" as="geometry" />
        </mxCell>
        <mxCell id="ImYyobWtf8lJqjhgtRaY-98" value="" style="rounded=0;orthogonalLoop=1;jettySize=auto;html=1;dashed=1;dashPattern=12 12;endArrow=none;endFill=0;" parent="1" source="ImYyobWtf8lJqjhgtRaY-79" target="ImYyobWtf8lJqjhgtRaY-97" edge="1">
          <mxGeometry relative="1" as="geometry" />
        </mxCell>
        <mxCell id="ImYyobWtf8lJqjhgtRaY-140" value="" style="rounded=0;orthogonalLoop=1;jettySize=auto;html=1;" parent="1" source="ImYyobWtf8lJqjhgtRaY-79" target="ImYyobWtf8lJqjhgtRaY-136" edge="1">
          <mxGeometry relative="1" as="geometry" />
        </mxCell>
        <mxCell id="ImYyobWtf8lJqjhgtRaY-79" value="EXPRESIONES REGULARES" style="ellipse;whiteSpace=wrap;html=1;fillColor=#1ba1e2;fontColor=#ffffff;strokeColor=#006EAF;" parent="1" vertex="1">
          <mxGeometry x="9" y="249" width="120" height="80" as="geometry" />
        </mxCell>
        <mxCell id="ImYyobWtf8lJqjhgtRaY-120" style="edgeStyle=orthogonalEdgeStyle;rounded=1;orthogonalLoop=1;jettySize=auto;html=1;exitX=1;exitY=0.25;exitDx=0;exitDy=0;entryX=0;entryY=0.5;entryDx=0;entryDy=0;curved=0;" parent="1" source="ImYyobWtf8lJqjhgtRaY-81" target="ImYyobWtf8lJqjhgtRaY-101" edge="1">
          <mxGeometry relative="1" as="geometry" />
        </mxCell>
        <mxCell id="ImYyobWtf8lJqjhgtRaY-121" style="edgeStyle=orthogonalEdgeStyle;rounded=1;orthogonalLoop=1;jettySize=auto;html=1;exitX=1;exitY=0.75;exitDx=0;exitDy=0;entryX=0;entryY=0.5;entryDx=0;entryDy=0;strokeColor=none;curved=0;" parent="1" source="ImYyobWtf8lJqjhgtRaY-81" target="ImYyobWtf8lJqjhgtRaY-102" edge="1">
          <mxGeometry relative="1" as="geometry" />
        </mxCell>
        <mxCell id="ImYyobWtf8lJqjhgtRaY-126" style="edgeStyle=orthogonalEdgeStyle;rounded=1;orthogonalLoop=1;jettySize=auto;html=1;exitX=1;exitY=0.75;exitDx=0;exitDy=0;entryX=0;entryY=0.5;entryDx=0;entryDy=0;curved=0;" parent="1" source="ImYyobWtf8lJqjhgtRaY-81" target="ImYyobWtf8lJqjhgtRaY-102" edge="1">
          <mxGeometry relative="1" as="geometry" />
        </mxCell>
        <mxCell id="ImYyobWtf8lJqjhgtRaY-81" value="Construcción de expresiones regulares" style="rounded=1;whiteSpace=wrap;html=1;fillColor=#647687;strokeColor=#314354;fontColor=#ffffff;" parent="1" vertex="1">
          <mxGeometry x="150" y="262" width="120" height="60" as="geometry" />
        </mxCell>
        <mxCell id="ImYyobWtf8lJqjhgtRaY-154" value="" style="edgeStyle=orthogonalEdgeStyle;rounded=1;orthogonalLoop=1;jettySize=auto;html=1;fillColor=#76608a;strokeColor=#FFFFFF;curved=0;" parent="1" source="ImYyobWtf8lJqjhgtRaY-92" target="ImYyobWtf8lJqjhgtRaY-150" edge="1">
          <mxGeometry relative="1" as="geometry" />
        </mxCell>
        <mxCell id="ImYyobWtf8lJqjhgtRaY-155" style="edgeStyle=orthogonalEdgeStyle;rounded=1;orthogonalLoop=1;jettySize=auto;html=1;exitX=0.25;exitY=0;exitDx=0;exitDy=0;entryX=1;entryY=0.5;entryDx=0;entryDy=0;fillColor=#76608a;strokeColor=#FFFFFF;curved=0;" parent="1" source="ImYyobWtf8lJqjhgtRaY-92" target="ImYyobWtf8lJqjhgtRaY-148" edge="1">
          <mxGeometry relative="1" as="geometry" />
        </mxCell>
        <mxCell id="ImYyobWtf8lJqjhgtRaY-156" style="edgeStyle=orthogonalEdgeStyle;rounded=1;orthogonalLoop=1;jettySize=auto;html=1;exitX=0.5;exitY=0;exitDx=0;exitDy=0;entryX=1;entryY=0.5;entryDx=0;entryDy=0;fillColor=#76608a;strokeColor=#FFFFFF;curved=0;" parent="1" source="ImYyobWtf8lJqjhgtRaY-92" target="ImYyobWtf8lJqjhgtRaY-153" edge="1">
          <mxGeometry relative="1" as="geometry" />
        </mxCell>
        <mxCell id="ImYyobWtf8lJqjhgtRaY-157" style="edgeStyle=orthogonalEdgeStyle;rounded=1;orthogonalLoop=1;jettySize=auto;html=1;exitX=0.25;exitY=1;exitDx=0;exitDy=0;entryX=1;entryY=0.5;entryDx=0;entryDy=0;fillColor=#76608a;strokeColor=#FFFFFF;curved=0;" parent="1" source="ImYyobWtf8lJqjhgtRaY-92" target="ImYyobWtf8lJqjhgtRaY-151" edge="1">
          <mxGeometry relative="1" as="geometry" />
        </mxCell>
        <mxCell id="ImYyobWtf8lJqjhgtRaY-158" style="edgeStyle=orthogonalEdgeStyle;rounded=1;orthogonalLoop=1;jettySize=auto;html=1;exitX=0.5;exitY=1;exitDx=0;exitDy=0;entryX=1;entryY=0.5;entryDx=0;entryDy=0;fillColor=#76608a;strokeColor=#FFFFFF;curved=0;" parent="1" source="ImYyobWtf8lJqjhgtRaY-92" target="ImYyobWtf8lJqjhgtRaY-152" edge="1">
          <mxGeometry relative="1" as="geometry" />
        </mxCell>
        <mxCell id="ImYyobWtf8lJqjhgtRaY-170" style="edgeStyle=orthogonalEdgeStyle;rounded=0;orthogonalLoop=1;jettySize=auto;html=1;exitX=0.75;exitY=1;exitDx=0;exitDy=0;entryX=0.5;entryY=0;entryDx=0;entryDy=0;endArrow=none;endFill=0;dashed=1;dashPattern=12 12;fillColor=#76608a;strokeColor=#FFFFFF;" parent="1" source="ImYyobWtf8lJqjhgtRaY-92" target="ImYyobWtf8lJqjhgtRaY-169" edge="1">
          <mxGeometry relative="1" as="geometry" />
        </mxCell>
        <mxCell id="ImYyobWtf8lJqjhgtRaY-92" value="Modificadores de expresiones regulares" style="rounded=1;whiteSpace=wrap;html=1;fillColor=#76608a;fontColor=#ffffff;strokeColor=#432D57;" parent="1" vertex="1">
          <mxGeometry x="-148" y="240.5" width="120" height="60" as="geometry" />
        </mxCell>
        <mxCell id="ImYyobWtf8lJqjhgtRaY-97" value="Secuencia de caracteres que definen un patrón de búsqueda" style="text;html=1;align=center;verticalAlign=middle;whiteSpace=wrap;rounded=0;dashed=1;strokeColor=#006EAF;fillColor=#1ba1e2;fontColor=#ffffff;" parent="1" vertex="1">
          <mxGeometry x="61" y="374.5" width="123" height="61" as="geometry" />
        </mxCell>
        <mxCell id="ImYyobWtf8lJqjhgtRaY-122" style="edgeStyle=orthogonalEdgeStyle;rounded=1;orthogonalLoop=1;jettySize=auto;html=1;exitX=0.625;exitY=0;exitDx=0;exitDy=0;entryX=0;entryY=0.5;entryDx=0;entryDy=0;curved=0;fillColor=#004C99;" parent="1" source="ImYyobWtf8lJqjhgtRaY-101" target="ImYyobWtf8lJqjhgtRaY-116" edge="1">
          <mxGeometry relative="1" as="geometry" />
        </mxCell>
        <mxCell id="ImYyobWtf8lJqjhgtRaY-123" style="edgeStyle=orthogonalEdgeStyle;rounded=1;orthogonalLoop=1;jettySize=auto;html=1;exitX=0.625;exitY=1;exitDx=0;exitDy=0;entryX=0;entryY=0.5;entryDx=0;entryDy=0;curved=0;fillColor=#004C99;" parent="1" source="ImYyobWtf8lJqjhgtRaY-101" target="ImYyobWtf8lJqjhgtRaY-118" edge="1">
          <mxGeometry relative="1" as="geometry" />
        </mxCell>
        <mxCell id="ImYyobWtf8lJqjhgtRaY-101" value="Función constructora" style="shape=hexagon;perimeter=hexagonPerimeter2;whiteSpace=wrap;html=1;fixedSize=1;fillColor=#647687;fontColor=#ffffff;strokeColor=#314354;" parent="1" vertex="1">
          <mxGeometry x="313" y="183.25000000000003" width="134" height="33" as="geometry" />
        </mxCell>
        <mxCell id="ImYyobWtf8lJqjhgtRaY-124" style="edgeStyle=orthogonalEdgeStyle;rounded=1;orthogonalLoop=1;jettySize=auto;html=1;exitX=0.625;exitY=0;exitDx=0;exitDy=0;entryX=0;entryY=0.5;entryDx=0;entryDy=0;curved=0;fillColor=#004C99;" parent="1" source="ImYyobWtf8lJqjhgtRaY-102" target="ImYyobWtf8lJqjhgtRaY-111" edge="1">
          <mxGeometry relative="1" as="geometry" />
        </mxCell>
        <mxCell id="ImYyobWtf8lJqjhgtRaY-125" style="edgeStyle=orthogonalEdgeStyle;rounded=1;orthogonalLoop=1;jettySize=auto;html=1;exitX=0.625;exitY=1;exitDx=0;exitDy=0;entryX=0;entryY=0.5;entryDx=0;entryDy=0;curved=0;fillColor=#004C99;" parent="1" source="ImYyobWtf8lJqjhgtRaY-102" target="ImYyobWtf8lJqjhgtRaY-113" edge="1">
          <mxGeometry relative="1" as="geometry" />
        </mxCell>
        <mxCell id="ImYyobWtf8lJqjhgtRaY-102" value="Literales" style="shape=hexagon;perimeter=hexagonPerimeter2;whiteSpace=wrap;html=1;fixedSize=1;fillColor=#647687;fontColor=#ffffff;strokeColor=#314354;" parent="1" vertex="1">
          <mxGeometry x="318" y="371.75" width="134" height="33" as="geometry" />
        </mxCell>
        <mxCell id="ImYyobWtf8lJqjhgtRaY-111" value="Consisten en un patrón encerrado entre dos barrar" style="text;html=1;align=center;verticalAlign=middle;whiteSpace=wrap;rounded=0;dashed=1;strokeColor=#314354;fillColor=#647687;flipH=1;flipV=1;fontColor=#ffffff;" parent="1" vertex="1">
          <mxGeometry x="460" y="304.25" width="123" height="80" as="geometry" />
        </mxCell>
        <mxCell id="ImYyobWtf8lJqjhgtRaY-113" value="Se crean en tiempo de compilación, por lo tanto son constante en tiempo de ejecución" style="text;html=1;align=center;verticalAlign=middle;whiteSpace=wrap;rounded=0;dashed=1;strokeColor=#314354;fillColor=#647687;flipH=1;flipV=1;fontColor=#ffffff;" parent="1" vertex="1">
          <mxGeometry x="460" y="409.75" width="123" height="80" as="geometry" />
        </mxCell>
        <mxCell id="ImYyobWtf8lJqjhgtRaY-116" value="Se utiliza la función constructor &quot;RegExp&quot; para la creación" style="text;html=1;align=center;verticalAlign=middle;whiteSpace=wrap;rounded=0;dashed=1;strokeColor=#314354;fillColor=#647687;flipH=1;flipV=1;fontColor=#ffffff;" parent="1" vertex="1">
          <mxGeometry x="455" y="94.25000000000003" width="123" height="80" as="geometry" />
        </mxCell>
        <mxCell id="ImYyobWtf8lJqjhgtRaY-118" value="La construcción en tiempo de ejecución, se crean de forma dinámica" style="text;html=1;align=center;verticalAlign=middle;whiteSpace=wrap;rounded=0;dashed=1;strokeColor=#314354;fillColor=#647687;flipH=1;flipV=1;fontColor=#ffffff;" parent="1" vertex="1">
          <mxGeometry x="455" y="199.25" width="123" height="80" as="geometry" />
        </mxCell>
        <mxCell id="ImYyobWtf8lJqjhgtRaY-141" style="edgeStyle=orthogonalEdgeStyle;rounded=1;orthogonalLoop=1;jettySize=auto;html=1;exitX=0.25;exitY=0;exitDx=0;exitDy=0;entryX=0.5;entryY=1;entryDx=0;entryDy=0;curved=0;fillColor=#6d8764;strokeColor=#FFFFFF;" parent="1" source="ImYyobWtf8lJqjhgtRaY-136" target="ImYyobWtf8lJqjhgtRaY-137" edge="1">
          <mxGeometry relative="1" as="geometry" />
        </mxCell>
        <mxCell id="ImYyobWtf8lJqjhgtRaY-142" style="edgeStyle=orthogonalEdgeStyle;rounded=1;orthogonalLoop=1;jettySize=auto;html=1;exitX=0.75;exitY=0;exitDx=0;exitDy=0;curved=0;fillColor=#6d8764;strokeColor=#FFFFFF;" parent="1" source="ImYyobWtf8lJqjhgtRaY-136" target="ImYyobWtf8lJqjhgtRaY-138" edge="1">
          <mxGeometry relative="1" as="geometry" />
        </mxCell>
        <mxCell id="ImYyobWtf8lJqjhgtRaY-136" value="Formas de escribir un patrón" style="rounded=1;whiteSpace=wrap;html=1;fillColor=#6d8764;strokeColor=#3A5431;fontColor=#ffffff;" parent="1" vertex="1">
          <mxGeometry x="13" y="152" width="120" height="60" as="geometry" />
        </mxCell>
        <mxCell id="ImYyobWtf8lJqjhgtRaY-143" value="" style="edgeStyle=orthogonalEdgeStyle;rounded=1;orthogonalLoop=1;jettySize=auto;html=1;curved=0;fillColor=#6d8764;strokeColor=#FFFFFF;" parent="1" source="ImYyobWtf8lJqjhgtRaY-137" target="ImYyobWtf8lJqjhgtRaY-139" edge="1">
          <mxGeometry relative="1" as="geometry" />
        </mxCell>
        <mxCell id="ImYyobWtf8lJqjhgtRaY-137" value="patrones simples" style="shape=hexagon;perimeter=hexagonPerimeter2;whiteSpace=wrap;html=1;fixedSize=1;fillColor=#6d8764;strokeColor=#3A5431;fontColor=#ffffff;" parent="1" vertex="1">
          <mxGeometry x="-95" y="68.50000000000003" width="134" height="33" as="geometry" />
        </mxCell>
        <mxCell id="ImYyobWtf8lJqjhgtRaY-145" style="edgeStyle=orthogonalEdgeStyle;rounded=1;orthogonalLoop=1;jettySize=auto;html=1;exitX=0.375;exitY=0;exitDx=0;exitDy=0;entryX=0.5;entryY=1;entryDx=0;entryDy=0;curved=0;fillColor=#6d8764;strokeColor=#FFFFFF;" parent="1" source="ImYyobWtf8lJqjhgtRaY-138" target="ImYyobWtf8lJqjhgtRaY-144" edge="1">
          <mxGeometry relative="1" as="geometry" />
        </mxCell>
        <mxCell id="ImYyobWtf8lJqjhgtRaY-147" style="edgeStyle=orthogonalEdgeStyle;rounded=1;orthogonalLoop=1;jettySize=auto;html=1;exitX=0.625;exitY=0;exitDx=0;exitDy=0;entryX=0.5;entryY=1;entryDx=0;entryDy=0;curved=0;fillColor=#6d8764;strokeColor=#FFFFFF;" parent="1" source="ImYyobWtf8lJqjhgtRaY-138" target="ImYyobWtf8lJqjhgtRaY-146" edge="1">
          <mxGeometry relative="1" as="geometry" />
        </mxCell>
        <mxCell id="ImYyobWtf8lJqjhgtRaY-138" value="Patrones expeciales" style="shape=hexagon;perimeter=hexagonPerimeter2;whiteSpace=wrap;html=1;fixedSize=1;fillColor=#6d8764;strokeColor=#3A5431;fontColor=#ffffff;" parent="1" vertex="1">
          <mxGeometry x="106" y="66.00000000000003" width="134" height="33" as="geometry" />
        </mxCell>
        <mxCell id="ImYyobWtf8lJqjhgtRaY-139" value="Coincide con una cade exacta" style="text;html=1;align=center;verticalAlign=middle;whiteSpace=wrap;rounded=0;dashed=1;strokeColor=#3A5431;fillColor=#6d8764;flipH=1;flipV=1;fontColor=#ffffff;" parent="1" vertex="1">
          <mxGeometry x="-149" y="-43" width="123" height="58" as="geometry" />
        </mxCell>
        <mxCell id="ImYyobWtf8lJqjhgtRaY-144" value="Usan caracteres especiales&lt;span style=&quot;font-family: monospace; font-size: 0px; text-align: start; text-wrap: nowrap;&quot;&gt;%3CmxGraphModel%3E%3Croot%3E%3CmxCell%20id%3D%220%22%2F%3E%3CmxCell%20id%3D%221%22%20parent%3D%220%22%2F%3E%3CmxCell%20id%3D%222%22%20value%3D%22Coincide%20con%20una%20cade%20exacta%22%20style%3D%22text%3Bhtml%3D1%3Balign%3Dcenter%3BverticalAlign%3Dmiddle%3BwhiteSpace%3Dwrap%3Brounded%3D0%3Bdashed%3D1%3BstrokeColor%3Ddefault%3BfillColor%3D%23004C99%3BflipH%3D1%3BflipV%3D1%3B%22%20vertex%3D%221%22%20parent%3D%221%22%3E%3CmxGeometry%20x%3D%22-89.5%22%20y%3D%22-46%22%20width%3D%22123%22%20height%3D%2258%22%20as%3D%22geometry%22%2F%3E%3C%2FmxCell%3E%3C%2Froot%3E%3C%2FmxGraphModel%3E&lt;/span&gt;" style="text;html=1;align=center;verticalAlign=middle;whiteSpace=wrap;rounded=0;dashed=1;strokeColor=#3A5431;fillColor=#6d8764;flipH=1;flipV=1;fontColor=#ffffff;" parent="1" vertex="1">
          <mxGeometry x="-2" y="-47" width="123" height="58" as="geometry" />
        </mxCell>
        <mxCell id="ImYyobWtf8lJqjhgtRaY-146" value="Permiten mayor flexibilidad y precisión en la manipulación y búsqueda de cadena de texto" style="text;html=1;align=center;verticalAlign=middle;whiteSpace=wrap;rounded=0;dashed=1;strokeColor=#3A5431;fillColor=#6d8764;flipH=1;flipV=1;fontColor=#ffffff;" parent="1" vertex="1">
          <mxGeometry x="164" y="-70" width="133" height="94" as="geometry" />
        </mxCell>
        <mxCell id="ImYyobWtf8lJqjhgtRaY-165" style="edgeStyle=orthogonalEdgeStyle;rounded=1;orthogonalLoop=1;jettySize=auto;html=1;exitX=0;exitY=0.5;exitDx=0;exitDy=0;entryX=1;entryY=0.5;entryDx=0;entryDy=0;fillColor=#76608a;strokeColor=#FFFFFF;curved=0;" parent="1" source="ImYyobWtf8lJqjhgtRaY-148" target="ImYyobWtf8lJqjhgtRaY-161" edge="1">
          <mxGeometry relative="1" as="geometry" />
        </mxCell>
        <mxCell id="ImYyobWtf8lJqjhgtRaY-148" value="i (Ignore Case)" style="shape=hexagon;perimeter=hexagonPerimeter2;whiteSpace=wrap;html=1;fixedSize=1;flipH=0;flipV=0;fillColor=#76608a;fontColor=#ffffff;strokeColor=#432D57;" parent="1" vertex="1">
          <mxGeometry x="-304" y="189" width="120" height="31" as="geometry" />
        </mxCell>
        <mxCell id="ImYyobWtf8lJqjhgtRaY-166" style="edgeStyle=orthogonalEdgeStyle;rounded=1;orthogonalLoop=1;jettySize=auto;html=1;exitX=0;exitY=0.5;exitDx=0;exitDy=0;entryX=1;entryY=0.5;entryDx=0;entryDy=0;fillColor=#76608a;strokeColor=#FFFFFF;curved=0;" parent="1" source="ImYyobWtf8lJqjhgtRaY-150" target="ImYyobWtf8lJqjhgtRaY-159" edge="1">
          <mxGeometry relative="1" as="geometry" />
        </mxCell>
        <mxCell id="ImYyobWtf8lJqjhgtRaY-150" value="m (Multilínea)" style="shape=hexagon;perimeter=hexagonPerimeter2;whiteSpace=wrap;html=1;fixedSize=1;flipH=0;flipV=0;fillColor=#76608a;fontColor=#ffffff;strokeColor=#432D57;" parent="1" vertex="1">
          <mxGeometry x="-304" y="255" width="120" height="31" as="geometry" />
        </mxCell>
        <mxCell id="ImYyobWtf8lJqjhgtRaY-167" style="edgeStyle=orthogonalEdgeStyle;rounded=1;orthogonalLoop=1;jettySize=auto;html=1;exitX=0;exitY=0.5;exitDx=0;exitDy=0;entryX=1;entryY=0.5;entryDx=0;entryDy=0;fillColor=#76608a;strokeColor=#FFFFFF;curved=0;" parent="1" source="ImYyobWtf8lJqjhgtRaY-151" target="ImYyobWtf8lJqjhgtRaY-160" edge="1">
          <mxGeometry relative="1" as="geometry" />
        </mxCell>
        <mxCell id="ImYyobWtf8lJqjhgtRaY-151" value="u (Unicode)" style="shape=hexagon;perimeter=hexagonPerimeter2;whiteSpace=wrap;html=1;fixedSize=1;flipH=0;flipV=0;fillColor=#76608a;fontColor=#ffffff;strokeColor=#432D57;" parent="1" vertex="1">
          <mxGeometry x="-304" y="315" width="120" height="31" as="geometry" />
        </mxCell>
        <mxCell id="ImYyobWtf8lJqjhgtRaY-168" style="edgeStyle=orthogonalEdgeStyle;rounded=1;orthogonalLoop=1;jettySize=auto;html=1;exitX=0;exitY=0.5;exitDx=0;exitDy=0;entryX=1;entryY=0.5;entryDx=0;entryDy=0;fillColor=#76608a;strokeColor=#FFFFFF;curved=0;" parent="1" source="ImYyobWtf8lJqjhgtRaY-152" target="ImYyobWtf8lJqjhgtRaY-163" edge="1">
          <mxGeometry relative="1" as="geometry" />
        </mxCell>
        <mxCell id="ImYyobWtf8lJqjhgtRaY-152" value="y (Sticky)" style="shape=hexagon;perimeter=hexagonPerimeter2;whiteSpace=wrap;html=1;fixedSize=1;flipH=0;flipV=0;fillColor=#76608a;fontColor=#ffffff;strokeColor=#432D57;" parent="1" vertex="1">
          <mxGeometry x="-304" y="378" width="120" height="31" as="geometry" />
        </mxCell>
        <mxCell id="ImYyobWtf8lJqjhgtRaY-164" style="edgeStyle=orthogonalEdgeStyle;rounded=1;orthogonalLoop=1;jettySize=auto;html=1;exitX=0;exitY=0.5;exitDx=0;exitDy=0;entryX=1;entryY=0.5;entryDx=0;entryDy=0;fillColor=#76608a;strokeColor=#FFFFFF;curved=0;" parent="1" source="ImYyobWtf8lJqjhgtRaY-153" target="ImYyobWtf8lJqjhgtRaY-162" edge="1">
          <mxGeometry relative="1" as="geometry" />
        </mxCell>
        <mxCell id="ImYyobWtf8lJqjhgtRaY-153" value="g (Global&lt;span data-darkreader-inline-color=&quot;&quot; data-darkreader-inline-bgcolor=&quot;&quot; style=&quot;background-color: initial; color: rgb(0, 0, 0); --darkreader-inline-bgcolor: initial; --darkreader-inline-color: #e8e6e3;&quot;&gt;)&lt;/span&gt;" style="shape=hexagon;perimeter=hexagonPerimeter2;whiteSpace=wrap;html=1;fixedSize=1;flipH=0;flipV=0;fillColor=#76608a;fontColor=#ffffff;strokeColor=#432D57;" parent="1" vertex="1">
          <mxGeometry x="-304" y="126" width="120" height="31" as="geometry" />
        </mxCell>
        <mxCell id="ImYyobWtf8lJqjhgtRaY-159" value="Tratan el inicio &quot;^&quot; y el final &quot;$&quot; de una línea como posiciones en la cadena" style="text;html=1;align=center;verticalAlign=middle;whiteSpace=wrap;rounded=0;dashed=1;strokeColor=#432D57;fillColor=#76608a;flipH=0;flipV=1;fontColor=#ffffff;" parent="1" vertex="1">
          <mxGeometry x="-474" y="241.5" width="123" height="58" as="geometry" />
        </mxCell>
        <mxCell id="ImYyobWtf8lJqjhgtRaY-160" value="Permiten la coincidencia de caracteres multibyte" style="text;html=1;align=center;verticalAlign=middle;whiteSpace=wrap;rounded=0;dashed=1;strokeColor=#432D57;fillColor=#76608a;flipH=0;flipV=1;fontColor=#ffffff;" parent="1" vertex="1">
          <mxGeometry x="-474" y="325.5" width="123" height="58" as="geometry" />
        </mxCell>
        <mxCell id="ImYyobWtf8lJqjhgtRaY-161" value="Ignoran las mayúsculas y minúsculas en la búsqueda" style="text;html=1;align=center;verticalAlign=middle;whiteSpace=wrap;rounded=0;dashed=1;strokeColor=#432D57;fillColor=#76608a;flipH=0;flipV=1;fontColor=#ffffff;" parent="1" vertex="1">
          <mxGeometry x="-474" y="157.5" width="123" height="58" as="geometry" />
        </mxCell>
        <mxCell id="ImYyobWtf8lJqjhgtRaY-162" value="Buscan todas las coincidencia del patrón en la cadena" style="text;html=1;align=center;verticalAlign=middle;whiteSpace=wrap;rounded=0;dashed=1;strokeColor=#432D57;fillColor=#76608a;flipH=0;flipV=1;fontColor=#ffffff;" parent="1" vertex="1">
          <mxGeometry x="-474" y="73.5" width="123" height="58" as="geometry" />
        </mxCell>
        <mxCell id="ImYyobWtf8lJqjhgtRaY-163" value="La búsqueda inicia en la posición especificada por &quot;lastIndex&quot;" style="text;html=1;align=center;verticalAlign=middle;whiteSpace=wrap;rounded=0;dashed=1;strokeColor=#432D57;fillColor=#76608a;flipH=0;flipV=1;fontColor=#ffffff;" parent="1" vertex="1">
          <mxGeometry x="-474" y="409.5" width="123" height="58" as="geometry" />
        </mxCell>
        <mxCell id="ImYyobWtf8lJqjhgtRaY-169" value="Opciones que cambian el comportamiento de una expresión regular" style="text;html=1;align=center;verticalAlign=middle;whiteSpace=wrap;rounded=0;dashed=1;strokeColor=#432D57;fillColor=#76608a;fontColor=#ffffff;" parent="1" vertex="1">
          <mxGeometry x="-120" y="412" width="123" height="61" as="geometry" />
        </mxCell>
      </root>
    </mxGraphModel>
  </diagram>
  <diagram id="8XkC4zxLmpSq2GqIhS9H" name="Caracteres especiales">
    <mxGraphModel dx="1035" dy="1020" grid="0" gridSize="10" guides="1" tooltips="1" connect="1" arrows="1" fold="1" page="0" pageScale="1" pageWidth="1169" pageHeight="827" math="0" shadow="0">
      <root>
        <mxCell id="0" />
        <mxCell id="1" parent="0" />
        <mxCell id="P-TKypuoRbTeVwkGlx0B-3" value="" style="rounded=1;orthogonalLoop=1;jettySize=auto;html=1;fillColor=#0050ef;strokeColor=#001DBC;" edge="1" parent="1" source="P-TKypuoRbTeVwkGlx0B-1" target="P-TKypuoRbTeVwkGlx0B-2">
          <mxGeometry relative="1" as="geometry" />
        </mxCell>
        <mxCell id="P-TKypuoRbTeVwkGlx0B-1" value="EXPRESIONES REGULARES CON CARACTERES ESPECIALES" style="ellipse;whiteSpace=wrap;html=1;fillColor=#fa6800;fontColor=#000000;strokeColor=#C73500;" vertex="1" parent="1">
          <mxGeometry x="197" y="223" width="120" height="80" as="geometry" />
        </mxCell>
        <mxCell id="P-TKypuoRbTeVwkGlx0B-46" style="edgeStyle=orthogonalEdgeStyle;rounded=1;orthogonalLoop=1;jettySize=auto;html=1;exitX=0.75;exitY=0;exitDx=0;exitDy=0;entryX=0;entryY=0.5;entryDx=0;entryDy=0;curved=0;fillColor=#6d8764;strokeColor=#3A5431;" edge="1" parent="1" source="P-TKypuoRbTeVwkGlx0B-2" target="P-TKypuoRbTeVwkGlx0B-4">
          <mxGeometry relative="1" as="geometry" />
        </mxCell>
        <mxCell id="P-TKypuoRbTeVwkGlx0B-47" style="edgeStyle=orthogonalEdgeStyle;rounded=1;orthogonalLoop=1;jettySize=auto;html=1;exitX=1;exitY=0.5;exitDx=0;exitDy=0;entryX=0;entryY=0.5;entryDx=0;entryDy=0;curved=0;fillColor=#6d8764;strokeColor=#3A5431;" edge="1" parent="1" source="P-TKypuoRbTeVwkGlx0B-2" target="P-TKypuoRbTeVwkGlx0B-5">
          <mxGeometry relative="1" as="geometry" />
        </mxCell>
        <mxCell id="P-TKypuoRbTeVwkGlx0B-48" style="edgeStyle=orthogonalEdgeStyle;rounded=1;orthogonalLoop=1;jettySize=auto;html=1;exitX=0.75;exitY=1;exitDx=0;exitDy=0;entryX=0;entryY=0.5;entryDx=0;entryDy=0;curved=0;fillColor=#6d8764;strokeColor=#3A5431;" edge="1" parent="1" source="P-TKypuoRbTeVwkGlx0B-2" target="P-TKypuoRbTeVwkGlx0B-36">
          <mxGeometry relative="1" as="geometry" />
        </mxCell>
        <mxCell id="P-TKypuoRbTeVwkGlx0B-2" value="ASERCIONES" style="rounded=1;whiteSpace=wrap;html=1;fillColor=#6d8764;fontColor=#ffffff;strokeColor=#3A5431;" vertex="1" parent="1">
          <mxGeometry x="378" y="229.75" width="120" height="34.5" as="geometry" />
        </mxCell>
        <mxCell id="P-TKypuoRbTeVwkGlx0B-21" style="edgeStyle=orthogonalEdgeStyle;rounded=1;orthogonalLoop=1;jettySize=auto;html=1;exitX=0.75;exitY=0;exitDx=0;exitDy=0;entryX=0;entryY=0.5;entryDx=0;entryDy=0;curved=0;fillColor=#6d8764;strokeColor=#3A5431;" edge="1" parent="1" source="P-TKypuoRbTeVwkGlx0B-4" target="P-TKypuoRbTeVwkGlx0B-7">
          <mxGeometry relative="1" as="geometry" />
        </mxCell>
        <mxCell id="P-TKypuoRbTeVwkGlx0B-22" style="edgeStyle=orthogonalEdgeStyle;rounded=1;orthogonalLoop=1;jettySize=auto;html=1;exitX=1;exitY=0.25;exitDx=0;exitDy=0;entryX=0;entryY=0.5;entryDx=0;entryDy=0;curved=0;fillColor=#6d8764;strokeColor=#3A5431;" edge="1" parent="1" source="P-TKypuoRbTeVwkGlx0B-4" target="P-TKypuoRbTeVwkGlx0B-8">
          <mxGeometry relative="1" as="geometry" />
        </mxCell>
        <mxCell id="P-TKypuoRbTeVwkGlx0B-23" style="edgeStyle=orthogonalEdgeStyle;rounded=1;orthogonalLoop=1;jettySize=auto;html=1;exitX=1;exitY=0.75;exitDx=0;exitDy=0;entryX=0;entryY=0.5;entryDx=0;entryDy=0;curved=0;fillColor=#6d8764;strokeColor=#3A5431;" edge="1" parent="1" source="P-TKypuoRbTeVwkGlx0B-4" target="P-TKypuoRbTeVwkGlx0B-9">
          <mxGeometry relative="1" as="geometry" />
        </mxCell>
        <mxCell id="P-TKypuoRbTeVwkGlx0B-24" style="edgeStyle=orthogonalEdgeStyle;rounded=1;orthogonalLoop=1;jettySize=auto;html=1;exitX=0.75;exitY=1;exitDx=0;exitDy=0;entryX=0;entryY=0.5;entryDx=0;entryDy=0;curved=0;fillColor=#6d8764;strokeColor=#3A5431;" edge="1" parent="1" source="P-TKypuoRbTeVwkGlx0B-4" target="P-TKypuoRbTeVwkGlx0B-10">
          <mxGeometry relative="1" as="geometry" />
        </mxCell>
        <mxCell id="P-TKypuoRbTeVwkGlx0B-4" value="Limite" style="rounded=1;whiteSpace=wrap;html=1;fillColor=#6d8764;fontColor=#ffffff;strokeColor=#3A5431;" vertex="1" parent="1">
          <mxGeometry x="546" y="100" width="120" height="60" as="geometry" />
        </mxCell>
        <mxCell id="P-TKypuoRbTeVwkGlx0B-32" style="edgeStyle=orthogonalEdgeStyle;rounded=1;orthogonalLoop=1;jettySize=auto;html=1;exitX=1;exitY=0.25;exitDx=0;exitDy=0;curved=0;fillColor=#6d8764;strokeColor=#3A5431;" edge="1" parent="1" source="P-TKypuoRbTeVwkGlx0B-5">
          <mxGeometry relative="1" as="geometry">
            <mxPoint x="698" y="314" as="targetPoint" />
          </mxGeometry>
        </mxCell>
        <mxCell id="P-TKypuoRbTeVwkGlx0B-33" style="edgeStyle=orthogonalEdgeStyle;rounded=0;orthogonalLoop=1;jettySize=auto;html=1;exitX=1;exitY=0.75;exitDx=0;exitDy=0;entryX=0;entryY=0.5;entryDx=0;entryDy=0;fillColor=#6d8764;strokeColor=#3A5431;" edge="1" parent="1" source="P-TKypuoRbTeVwkGlx0B-5" target="P-TKypuoRbTeVwkGlx0B-26">
          <mxGeometry relative="1" as="geometry" />
        </mxCell>
        <mxCell id="P-TKypuoRbTeVwkGlx0B-5" value="Anticipadas" style="rounded=1;whiteSpace=wrap;html=1;fillColor=#6d8764;fontColor=#ffffff;strokeColor=#3A5431;" vertex="1" parent="1">
          <mxGeometry x="538" y="307" width="120" height="60" as="geometry" />
        </mxCell>
        <mxCell id="P-TKypuoRbTeVwkGlx0B-16" style="edgeStyle=orthogonalEdgeStyle;rounded=1;orthogonalLoop=1;jettySize=auto;html=1;exitX=1;exitY=0.5;exitDx=0;exitDy=0;entryX=0;entryY=0.5;entryDx=0;entryDy=0;curved=0;fillColor=#6d8764;strokeColor=#3A5431;" edge="1" parent="1" source="P-TKypuoRbTeVwkGlx0B-7" target="P-TKypuoRbTeVwkGlx0B-12">
          <mxGeometry relative="1" as="geometry" />
        </mxCell>
        <mxCell id="P-TKypuoRbTeVwkGlx0B-7" value="^" style="shape=hexagon;perimeter=hexagonPerimeter2;whiteSpace=wrap;html=1;fixedSize=1;fontSize=14;fontStyle=1;fillColor=#6d8764;fontColor=#ffffff;strokeColor=#3A5431;" vertex="1" parent="1">
          <mxGeometry x="709" y="37" width="85" height="33" as="geometry" />
        </mxCell>
        <mxCell id="P-TKypuoRbTeVwkGlx0B-51" style="edgeStyle=orthogonalEdgeStyle;rounded=1;orthogonalLoop=1;jettySize=auto;html=1;exitX=1;exitY=0.5;exitDx=0;exitDy=0;entryX=0;entryY=0.5;entryDx=0;entryDy=0;curved=0;fillColor=#6d8764;strokeColor=#3A5431;" edge="1" parent="1" source="P-TKypuoRbTeVwkGlx0B-8" target="P-TKypuoRbTeVwkGlx0B-13">
          <mxGeometry relative="1" as="geometry" />
        </mxCell>
        <mxCell id="P-TKypuoRbTeVwkGlx0B-8" value="$" style="shape=hexagon;perimeter=hexagonPerimeter2;whiteSpace=wrap;html=1;fixedSize=1;fontSize=14;fontStyle=1;fillColor=#6d8764;fontColor=#ffffff;strokeColor=#3A5431;" vertex="1" parent="1">
          <mxGeometry x="712" y="87" width="85" height="33" as="geometry" />
        </mxCell>
        <mxCell id="P-TKypuoRbTeVwkGlx0B-52" style="edgeStyle=orthogonalEdgeStyle;rounded=1;orthogonalLoop=1;jettySize=auto;html=1;exitX=1;exitY=0.5;exitDx=0;exitDy=0;entryX=0;entryY=0.5;entryDx=0;entryDy=0;curved=0;fillColor=#6d8764;strokeColor=#3A5431;" edge="1" parent="1" source="P-TKypuoRbTeVwkGlx0B-9" target="P-TKypuoRbTeVwkGlx0B-14">
          <mxGeometry relative="1" as="geometry" />
        </mxCell>
        <mxCell id="P-TKypuoRbTeVwkGlx0B-9" value="\b&lt;span style=&quot;font-family: monospace; font-size: 0px; font-weight: 400; text-align: start; text-wrap: nowrap;&quot;&gt;%3CmxGraphModel%3E%3Croot%3E%3CmxCell%20id%3D%220%22%2F%3E%3CmxCell%20id%3D%221%22%20parent%3D%220%22%2F%3E%3CmxCell%20id%3D%222%22%20value%3D%22%24%22%20style%3D%22shape%3Dhexagon%3Bperimeter%3DhexagonPerimeter2%3BwhiteSpace%3Dwrap%3Bhtml%3D1%3BfixedSize%3D1%3BfontSize%3D14%3BfontStyle%3D1%22%20vertex%3D%221%22%20parent%3D%221%22%3E%3CmxGeometry%20x%3D%22657%22%20y%3D%2282%22%20width%3D%2285%22%20height%3D%2233%22%20as%3D%22geometry%22%2F%3E%3C%2FmxCell%3E%3C%2Froot%3E%3C%2FmxGraphModel%3E&lt;/span&gt;" style="shape=hexagon;perimeter=hexagonPerimeter2;whiteSpace=wrap;html=1;fixedSize=1;fontSize=14;fontStyle=1;fillColor=#6d8764;fontColor=#ffffff;strokeColor=#3A5431;" vertex="1" parent="1">
          <mxGeometry x="714" y="136" width="85" height="33" as="geometry" />
        </mxCell>
        <mxCell id="P-TKypuoRbTeVwkGlx0B-19" style="edgeStyle=orthogonalEdgeStyle;rounded=1;orthogonalLoop=1;jettySize=auto;html=1;exitX=1;exitY=0.5;exitDx=0;exitDy=0;entryX=0;entryY=0.5;entryDx=0;entryDy=0;curved=0;fillColor=#6d8764;strokeColor=#3A5431;" edge="1" parent="1" source="P-TKypuoRbTeVwkGlx0B-10" target="P-TKypuoRbTeVwkGlx0B-15">
          <mxGeometry relative="1" as="geometry" />
        </mxCell>
        <mxCell id="P-TKypuoRbTeVwkGlx0B-10" value="\B&lt;span style=&quot;font-family: monospace; font-size: 0px; font-weight: 400; text-align: start; text-wrap: nowrap;&quot;&gt;%3CmxGraphModel%3E%3Croot%3E%3CmxCell%20id%3D%220%22%2F%3E%3CmxCell%20id%3D%221%22%20parent%3D%220%22%2F%3E%3CmxCell%20id%3D%222%22%20value%3D%22%24%22%20style%3D%22shape%3Dhexagon%3Bperimeter%3DhexagonPerimeter2%3BwhiteSpace%3Dwrap%3Bhtml%3D1%3BfixedSize%3D1%3BfontSize%3D14%3BfontStyle%3D1%22%20vertex%3D%221%22%20parent%3D%221%22%3E%3CmxGeometry%20x%3D%22657%22%20y%3D%2282%22%20width%3D%2285%22%20height%3D%2233%22%20as%3D%22geometry%22%2F%3E%3C%2FmxCell%3E%3C%2Froot%3E%3C%2FmxGraphModel%3B&lt;/span&gt;" style="shape=hexagon;perimeter=hexagonPerimeter2;whiteSpace=wrap;html=1;fixedSize=1;fontSize=14;fontStyle=1;fillColor=#6d8764;fontColor=#ffffff;strokeColor=#3A5431;" vertex="1" parent="1">
          <mxGeometry x="717" y="186" width="85" height="33" as="geometry" />
        </mxCell>
        <mxCell id="P-TKypuoRbTeVwkGlx0B-12" value="Coinciden con el inicio de una cadena o una línea de una cadena si se utiliza el modificador (m)" style="text;html=1;align=center;verticalAlign=middle;whiteSpace=wrap;rounded=1;strokeColor=#3A5431;dashed=1;fillColor=#6d8764;fontColor=#ffffff;" vertex="1" parent="1">
          <mxGeometry x="840" y="-2" width="207" height="51" as="geometry" />
        </mxCell>
        <mxCell id="P-TKypuoRbTeVwkGlx0B-13" value="Coinciden con el final de una cadena o el final de la línea de una cadena si se utiliza el modificador (m)" style="text;html=1;align=center;verticalAlign=middle;whiteSpace=wrap;rounded=1;strokeColor=#3A5431;dashed=1;fillColor=#6d8764;fontColor=#ffffff;" vertex="1" parent="1">
          <mxGeometry x="840" y="68" width="207" height="51" as="geometry" />
        </mxCell>
        <mxCell id="P-TKypuoRbTeVwkGlx0B-14" value="Coincide entre los limite de un carácter de palabra (a - z ; A -Z ; _) y un carácter que no es una palabra" style="text;html=1;align=center;verticalAlign=middle;whiteSpace=wrap;rounded=1;strokeColor=#3A5431;dashed=1;fillColor=#6d8764;fontColor=#ffffff;" vertex="1" parent="1">
          <mxGeometry x="840" y="137" width="207" height="51" as="geometry" />
        </mxCell>
        <mxCell id="P-TKypuoRbTeVwkGlx0B-15" value="Coincide entre los limite, donde,&amp;nbsp; ambos con carácter de palabra (a - z ; A -Z ; _) o no son carácter de palabra" style="text;html=1;align=center;verticalAlign=middle;whiteSpace=wrap;rounded=1;strokeColor=#3A5431;dashed=1;fillColor=#6d8764;fontColor=#ffffff;" vertex="1" parent="1">
          <mxGeometry x="840" y="207" width="207" height="51" as="geometry" />
        </mxCell>
        <mxCell id="P-TKypuoRbTeVwkGlx0B-29" style="edgeStyle=orthogonalEdgeStyle;rounded=1;orthogonalLoop=1;jettySize=auto;html=1;exitX=1;exitY=0.5;exitDx=0;exitDy=0;entryX=0;entryY=0.5;entryDx=0;entryDy=0;curved=0;fillColor=#6d8764;strokeColor=#3A5431;" edge="1" parent="1" source="P-TKypuoRbTeVwkGlx0B-25" target="P-TKypuoRbTeVwkGlx0B-27">
          <mxGeometry relative="1" as="geometry" />
        </mxCell>
        <mxCell id="P-TKypuoRbTeVwkGlx0B-25" value="(?=patrón)" style="shape=hexagon;perimeter=hexagonPerimeter2;whiteSpace=wrap;html=1;fixedSize=1;fontSize=14;fontStyle=1;fillColor=#6d8764;fontColor=#ffffff;strokeColor=#3A5431;" vertex="1" parent="1">
          <mxGeometry x="699" y="297" width="94" height="33" as="geometry" />
        </mxCell>
        <mxCell id="P-TKypuoRbTeVwkGlx0B-30" style="edgeStyle=orthogonalEdgeStyle;rounded=1;orthogonalLoop=1;jettySize=auto;html=1;exitX=1;exitY=0.5;exitDx=0;exitDy=0;entryX=0;entryY=0.5;entryDx=0;entryDy=0;curved=0;fillColor=#6d8764;strokeColor=#3A5431;" edge="1" parent="1" source="P-TKypuoRbTeVwkGlx0B-26" target="P-TKypuoRbTeVwkGlx0B-28">
          <mxGeometry relative="1" as="geometry" />
        </mxCell>
        <mxCell id="P-TKypuoRbTeVwkGlx0B-26" value="(?!patrón)" style="shape=hexagon;perimeter=hexagonPerimeter2;whiteSpace=wrap;html=1;fixedSize=1;fontSize=14;fontStyle=1;fillColor=#6d8764;fontColor=#ffffff;strokeColor=#3A5431;" vertex="1" parent="1">
          <mxGeometry x="702" y="342" width="94" height="33" as="geometry" />
        </mxCell>
        <mxCell id="P-TKypuoRbTeVwkGlx0B-27" value="Coincide en la posición seguido por el patrón, sin incluirlo en la coincidencia" style="text;html=1;align=center;verticalAlign=middle;whiteSpace=wrap;rounded=1;strokeColor=#3A5431;dashed=1;fillColor=#6d8764;fontColor=#ffffff;" vertex="1" parent="1">
          <mxGeometry x="840" y="276" width="207" height="51" as="geometry" />
        </mxCell>
        <mxCell id="P-TKypuoRbTeVwkGlx0B-28" value="Coincide en la posición que no esta seguido por el patrón, sin incluirlo en la coincidencia" style="text;html=1;align=center;verticalAlign=middle;whiteSpace=wrap;rounded=1;strokeColor=#3A5431;dashed=1;fillColor=#6d8764;fontColor=#ffffff;" vertex="1" parent="1">
          <mxGeometry x="840" y="345.5" width="207" height="51" as="geometry" />
        </mxCell>
        <mxCell id="P-TKypuoRbTeVwkGlx0B-34" style="edgeStyle=orthogonalEdgeStyle;rounded=1;orthogonalLoop=1;jettySize=auto;html=1;exitX=1;exitY=0.25;exitDx=0;exitDy=0;curved=0;fillColor=#6d8764;strokeColor=#3A5431;" edge="1" parent="1" source="P-TKypuoRbTeVwkGlx0B-36">
          <mxGeometry relative="1" as="geometry">
            <mxPoint x="698" y="454" as="targetPoint" />
          </mxGeometry>
        </mxCell>
        <mxCell id="P-TKypuoRbTeVwkGlx0B-35" style="edgeStyle=orthogonalEdgeStyle;rounded=1;orthogonalLoop=1;jettySize=auto;html=1;exitX=1;exitY=0.75;exitDx=0;exitDy=0;entryX=0;entryY=0.5;entryDx=0;entryDy=0;curved=0;fillColor=#6d8764;strokeColor=#3A5431;" edge="1" parent="1" source="P-TKypuoRbTeVwkGlx0B-36" target="P-TKypuoRbTeVwkGlx0B-40">
          <mxGeometry relative="1" as="geometry" />
        </mxCell>
        <mxCell id="P-TKypuoRbTeVwkGlx0B-36" value="Anticipadas" style="rounded=1;whiteSpace=wrap;html=1;fillColor=#6d8764;fontColor=#ffffff;strokeColor=#3A5431;" vertex="1" parent="1">
          <mxGeometry x="538" y="447" width="120" height="60" as="geometry" />
        </mxCell>
        <mxCell id="P-TKypuoRbTeVwkGlx0B-37" style="edgeStyle=orthogonalEdgeStyle;rounded=1;orthogonalLoop=1;jettySize=auto;html=1;exitX=1;exitY=0.5;exitDx=0;exitDy=0;entryX=0;entryY=0.5;entryDx=0;entryDy=0;curved=0;fillColor=#6d8764;strokeColor=#3A5431;" edge="1" parent="1" source="P-TKypuoRbTeVwkGlx0B-38" target="P-TKypuoRbTeVwkGlx0B-41">
          <mxGeometry relative="1" as="geometry" />
        </mxCell>
        <mxCell id="P-TKypuoRbTeVwkGlx0B-38" value="(?&amp;lt;=patrón)" style="shape=hexagon;perimeter=hexagonPerimeter2;whiteSpace=wrap;html=1;fixedSize=1;fontSize=14;fontStyle=1;fillColor=#6d8764;fontColor=#ffffff;strokeColor=#3A5431;" vertex="1" parent="1">
          <mxGeometry x="699" y="437" width="94" height="33" as="geometry" />
        </mxCell>
        <mxCell id="P-TKypuoRbTeVwkGlx0B-39" style="edgeStyle=orthogonalEdgeStyle;rounded=1;orthogonalLoop=1;jettySize=auto;html=1;exitX=1;exitY=0.5;exitDx=0;exitDy=0;entryX=0;entryY=0.5;entryDx=0;entryDy=0;curved=0;fillColor=#6d8764;strokeColor=#3A5431;" edge="1" parent="1" source="P-TKypuoRbTeVwkGlx0B-40" target="P-TKypuoRbTeVwkGlx0B-42">
          <mxGeometry relative="1" as="geometry" />
        </mxCell>
        <mxCell id="P-TKypuoRbTeVwkGlx0B-40" value="(?&amp;lt;!patrón)" style="shape=hexagon;perimeter=hexagonPerimeter2;whiteSpace=wrap;html=1;fixedSize=1;fontSize=14;fontStyle=1;fillColor=#6d8764;fontColor=#ffffff;strokeColor=#3A5431;" vertex="1" parent="1">
          <mxGeometry x="702" y="482" width="94" height="33" as="geometry" />
        </mxCell>
        <mxCell id="P-TKypuoRbTeVwkGlx0B-41" value="Coincide en la posición precedida por el patrón, sin incluirlo en la coincidencia" style="text;html=1;align=center;verticalAlign=middle;whiteSpace=wrap;rounded=1;strokeColor=#3A5431;dashed=1;fillColor=#6d8764;fontColor=#ffffff;" vertex="1" parent="1">
          <mxGeometry x="840" y="416" width="207" height="51" as="geometry" />
        </mxCell>
        <mxCell id="P-TKypuoRbTeVwkGlx0B-42" value="Coincide en la posición que no esta precedida por el patrón, sin incluirlo en la coincidencia" style="text;html=1;align=center;verticalAlign=middle;whiteSpace=wrap;rounded=1;strokeColor=#3A5431;dashed=1;fillColor=#6d8764;fontColor=#ffffff;" vertex="1" parent="1">
          <mxGeometry x="840" y="485.5" width="207" height="51" as="geometry" />
        </mxCell>
      </root>
    </mxGraphModel>
  </diagram>
</mxfile>
